<svg xmlns="http://www.w3.org/2000/svg" viewBox="0 0 1200 630">
  <defs>
    <radialGradient id="glow" cx="78%" cy="14%" r="72%">
      <stop stop-color="#ff6b2c" stop-opacity=".38"/>
      <stop offset=".46" stop-color="#151923" stop-opacity=".88"/>
      <stop offset="1" stop-color="#05070b"/>
    </radialGradient>
    <linearGradient id="flame" x1="378" y1="98" x2="675" y2="488" gradientUnits="userSpaceOnUse">
      <stop stop-color="#ffb02e"/>
      <stop offset=".48" stop-color="#ff4d2d"/>
      <stop offset="1" stop-color="#c91f12"/>
    </linearGradient>
    <linearGradient id="metal" x1="520" y1="255" x2="802" y2="472" gradientUnits="userSpaceOnUse">
      <stop stop-color="#fff7e7"/>
      <stop offset=".5" stop-color="#b8c0cc"/>
      <stop offset="1" stop-color="#505b68"/>
    </linearGradient>
  </defs>
  <rect width="1200" height="630" fill="url(#glow)"/>
  <circle cx="858" cy="112" r="260" fill="#ff4d2d" opacity=".08"/>
  <circle cx="742" cy="536" r="340" fill="#ff8c42" opacity=".05"/>
  <g transform="translate(75 75)">
    <rect width="480" height="480" rx="104" fill="#05070b"/>
    <circle cx="240" cy="240" r="194" fill="#0b0f17" stroke="#ff6b2c" stroke-width="18"/>
    <path d="M244 69c51 55 36 96 13 138 43-22 55-66 48-105 71 60 96 128 55 209-25 52-72 83-128 83-77 0-138-53-138-126 0-52 31-93 77-138-10 50 8 83 44 100-18-60 0-108 29-161z" fill="url(#flame)"/>
    <path d="M100 315l61-193h168l-21 65H209l-13 40h93l-20 61h-94l-31 99H84l16-72z" fill="url(#flame)"/>
    <path d="M244 315h129l-21 68H168l108-140h-72l21-64h169L244 315z" fill="url(#metal)"/>
    <circle cx="330" cy="337" r="53" fill="#10131a" stroke="#ff6b2c" stroke-width="15"/>
    <path d="M313 306l54 31-54 32v-63z" fill="#ff6b2c"/>
  </g>
  <g font-family="Inter, Arial, Helvetica, sans-serif">
    <text x="615" y="232" fill="#fff" font-size="76" font-weight="900">Flamez Movies</text>
    <text x="620" y="296" fill="#ffb8a8" font-size="30" font-weight="800" letter-spacing="5">MOVIE DOWNLOADS</text>
    <text x="620" y="365" fill="#d8dee8" font-size="34" font-weight="700">Search movies, series, and direct</text>
    <text x="620" y="410" fill="#d8dee8" font-size="34" font-weight="700">download links in one place.</text>
    <rect x="620" y="462" width="268" height="62" rx="31" fill="#ff5f2f"/>
    <text x="754" y="503" text-anchor="middle" fill="#111" font-size="25" font-weight="900">Browse catalog</text>
  </g>
</svg>
